<svg version="1.0" xmlns="http://www.w3.org/2000/svg" width="320.000000pt" height="320.000000pt" viewBox="0 0 320.000000 320.000000" preserveAspectRatio="xMidYMid meet">

<g transform="translate(0.000000,320.000000) scale(0.100000,-0.100000)" fill="#0A4536" stroke="none">
<path d="M0 1600 l0 -1600 1600 0 1600 0 0 1600 0 1600 -1600 0 -1600 0 0 -1600z m1026 627 c41 -93 74 -172 74 -178 0 -5 -26 -9 -58 -9 l-59 0 -81 168 c-45 93 -82 174 -82 181 0 8 19 11 66 9 l67 -3 73 -168z m1294 161 c0 -7 -36 -87 -80 -178 l-80 -165 -64 -3 -64 -3 65 148 c35 81 71 163 78 181 14 31 15 32 79 32 46 0 66 -4 66 -12z m-148 -388 c52 -15 97 -55 119 -108 18 -40 19 -74 19 -460 0 -256 -4 -431 -10 -454 -14 -50 -55 -97 -105 -119 -32 -15 -66 -19 -173 -19 l-133 0 3 279 3 279 30 43 c44 62 85 83 180 89 l80 5 3 130 c4 156 -6 201 -49 219 -61 26 -111 -8 -124 -83 -5 -33 -11 -40 -37 -45 -17 -3 -44 -6 -61 -6 l-30 0 7 56 c18 155 132 234 278 194z m-370 -11 l38 -10 -25 -49 c-24 -48 -27 -50 -68 -50 -47 0 -56 -5 -80 -40 -15 -22 -17 -70 -17 -512 l0 -488 -60 0 -60 0 0 503 c0 467 2 505 19 542 42 92 145 135 253 104z m-982 -34 c0 -30 -61 -248 -230 -813 -28 -95 -48 -177 -44 -183 4 -8 33 -10 80 -7 103 7 112 17 116 127 l3 86 63 3 62 3 0 -93 c0 -117 -20 -164 -82 -205 -42 -28 -46 -28 -215 -31 l-173 -4 0 45 c0 25 23 124 51 219 27 95 70 241 94 323 24 83 64 216 88 298 l44 147 -78 0 -79 0 0 -95 0 -95 -60 0 -60 0 0 155 0 155 210 0 210 0 0 -35z m290 -540 l0 -575 -65 0 -65 0 0 575 0 575 65 0 65 0 0 -575z m1647 547 c45 -24 74 -58 91 -111 9 -24 12 -180 12 -522 l0 -489 -60 0 -59 0 -3 484 c-3 475 -3 485 -24 513 -19 25 -28 28 -88 31 l-66 3 0 -516 0 -515 -60 0 -60 0 0 576 0 576 138 -4 c117 -3 143 -7 179 -26z"/>
<path d="M2074 1410 c-53 -16 -59 -41 -59 -259 l0 -196 35 -3 c59 -6 106 14 124 53 14 28 16 65 14 222 l-3 188 -40 2 c-22 1 -54 -2 -71 -7z"/>
</g>
</svg>